<mxfile host="app.diagrams.net" modified="2022-05-10T07:18:10.349Z" agent="5.0 (X11; Linux x86_64) AppleWebKit/537.36 (KHTML, like Gecko) Chrome/100.0.4896.127 Safari/537.36" etag="W-1dYf1foc1EgHk54ICm" version="18.0.2" type="github">
  <diagram name="Page-1" id="13e1069c-82ec-6db2-03f1-153e76fe0fe0">
    <mxGraphModel dx="1174" dy="1522" grid="1" gridSize="10" guides="1" tooltips="1" connect="1" arrows="1" fold="1" page="1" pageScale="1" pageWidth="1100" pageHeight="850" background="none" math="0" shadow="0">
      <root>
        <mxCell id="0" />
        <mxCell id="1" parent="0" />
        <mxCell id="7baba1c4bc27f4b0-2" value="api-server" style="shape=umlLifeline;perimeter=lifelinePerimeter;whiteSpace=wrap;html=1;container=1;collapsible=0;recursiveResize=0;outlineConnect=0;rounded=1;shadow=0;comic=0;labelBackgroundColor=none;strokeWidth=1;fontFamily=Verdana;fontSize=12;align=center;" parent="1" vertex="1">
          <mxGeometry x="240" y="80" width="100" height="580" as="geometry" />
        </mxCell>
        <mxCell id="7baba1c4bc27f4b0-10" value="" style="html=1;points=[];perimeter=orthogonalPerimeter;rounded=0;shadow=0;comic=0;labelBackgroundColor=none;strokeWidth=1;fontFamily=Verdana;fontSize=12;align=center;" parent="7baba1c4bc27f4b0-2" vertex="1">
          <mxGeometry x="45" y="100" width="10" height="430" as="geometry" />
        </mxCell>
        <mxCell id="0INOOXT7LoLd9vlv_FNC-25" value="" style="curved=1;endArrow=classic;html=1;rounded=0;fontSize=9;" edge="1" parent="7baba1c4bc27f4b0-2" target="7baba1c4bc27f4b0-2">
          <mxGeometry width="50" height="50" relative="1" as="geometry">
            <mxPoint x="55" y="280" as="sourcePoint" />
            <mxPoint x="105" y="230" as="targetPoint" />
            <Array as="points">
              <mxPoint x="110" y="280" />
              <mxPoint x="70" y="310" />
            </Array>
          </mxGeometry>
        </mxCell>
        <mxCell id="0INOOXT7LoLd9vlv_FNC-37" value="" style="curved=1;endArrow=classic;html=1;rounded=0;fontSize=9;" edge="1" parent="7baba1c4bc27f4b0-2" target="7baba1c4bc27f4b0-2">
          <mxGeometry width="50" height="50" relative="1" as="geometry">
            <mxPoint x="55" y="430" as="sourcePoint" />
            <mxPoint x="105" y="380" as="targetPoint" />
            <Array as="points">
              <mxPoint x="105" y="430" />
              <mxPoint x="90" y="470" />
            </Array>
          </mxGeometry>
        </mxCell>
        <mxCell id="7baba1c4bc27f4b0-3" value="Auth api" style="shape=umlLifeline;perimeter=lifelinePerimeter;whiteSpace=wrap;html=1;container=1;collapsible=0;recursiveResize=0;outlineConnect=0;rounded=1;shadow=0;comic=0;labelBackgroundColor=none;strokeWidth=1;fontFamily=Verdana;fontSize=12;align=center;" parent="1" vertex="1">
          <mxGeometry x="400" y="80" width="100" height="580" as="geometry" />
        </mxCell>
        <mxCell id="0INOOXT7LoLd9vlv_FNC-15" value="" style="html=1;points=[];perimeter=orthogonalPerimeter;fontSize=9;" vertex="1" parent="7baba1c4bc27f4b0-3">
          <mxGeometry x="46" y="180" width="10" height="80" as="geometry" />
        </mxCell>
        <mxCell id="0INOOXT7LoLd9vlv_FNC-28" value="" style="html=1;points=[];perimeter=orthogonalPerimeter;fontSize=9;" vertex="1" parent="7baba1c4bc27f4b0-3">
          <mxGeometry x="45" y="330" width="10" height="80" as="geometry" />
        </mxCell>
        <mxCell id="7baba1c4bc27f4b0-4" value="cognito" style="shape=umlLifeline;perimeter=lifelinePerimeter;whiteSpace=wrap;html=1;container=1;collapsible=0;recursiveResize=0;outlineConnect=0;rounded=1;shadow=0;comic=0;labelBackgroundColor=none;strokeWidth=1;fontFamily=Verdana;fontSize=12;align=center;" parent="1" vertex="1">
          <mxGeometry x="540" y="80" width="100" height="580" as="geometry" />
        </mxCell>
        <mxCell id="0INOOXT7LoLd9vlv_FNC-20" value="" style="html=1;points=[];perimeter=orthogonalPerimeter;fontSize=9;" vertex="1" parent="7baba1c4bc27f4b0-4">
          <mxGeometry x="44" y="191" width="10" height="49" as="geometry" />
        </mxCell>
        <mxCell id="0INOOXT7LoLd9vlv_FNC-34" value="" style="html=1;points=[];perimeter=orthogonalPerimeter;fontSize=9;" vertex="1" parent="7baba1c4bc27f4b0-4">
          <mxGeometry x="45" y="345" width="10" height="45" as="geometry" />
        </mxCell>
        <mxCell id="7baba1c4bc27f4b0-8" value="Front page" style="shape=umlLifeline;perimeter=lifelinePerimeter;whiteSpace=wrap;html=1;container=1;collapsible=0;recursiveResize=0;outlineConnect=0;rounded=1;shadow=0;comic=0;labelBackgroundColor=none;strokeWidth=1;fontFamily=Verdana;fontSize=12;align=center;" parent="1" vertex="1">
          <mxGeometry x="100" y="80" width="100" height="580" as="geometry" />
        </mxCell>
        <mxCell id="7baba1c4bc27f4b0-9" value="" style="html=1;points=[];perimeter=orthogonalPerimeter;rounded=0;shadow=0;comic=0;labelBackgroundColor=none;strokeWidth=1;fontFamily=Verdana;fontSize=12;align=center;" parent="7baba1c4bc27f4b0-8" vertex="1">
          <mxGeometry x="45" y="100" width="10" height="440" as="geometry" />
        </mxCell>
        <mxCell id="7baba1c4bc27f4b0-11" value="" style="html=1;verticalAlign=bottom;endArrow=block;entryX=0;entryY=0;labelBackgroundColor=none;fontFamily=Verdana;fontSize=12;edgeStyle=elbowEdgeStyle;elbow=vertical;" parent="1" source="7baba1c4bc27f4b0-9" target="7baba1c4bc27f4b0-10" edge="1">
          <mxGeometry relative="1" as="geometry">
            <mxPoint x="220" y="190" as="sourcePoint" />
          </mxGeometry>
        </mxCell>
        <mxCell id="0INOOXT7LoLd9vlv_FNC-2" value="Old flow login" style="shape=note;whiteSpace=wrap;html=1;backgroundOutline=1;darkOpacity=0.05;" vertex="1" parent="1">
          <mxGeometry x="110" y="-40" width="80" height="100" as="geometry" />
        </mxCell>
        <mxCell id="0INOOXT7LoLd9vlv_FNC-3" value="&lt;font style=&quot;font-size: 9px;&quot;&gt;login with email&amp;nbsp;&lt;br&gt;and password&lt;/font&gt;" style="text;html=1;align=center;verticalAlign=middle;resizable=0;points=[];autosize=1;strokeColor=none;fillColor=none;" vertex="1" parent="1">
          <mxGeometry x="180" y="180" width="80" height="40" as="geometry" />
        </mxCell>
        <mxCell id="0INOOXT7LoLd9vlv_FNC-13" value="" style="curved=1;endArrow=classic;html=1;rounded=0;" edge="1" parent="1" target="7baba1c4bc27f4b0-2">
          <mxGeometry width="50" height="50" relative="1" as="geometry">
            <mxPoint x="295" y="200" as="sourcePoint" />
            <mxPoint x="345" y="150" as="targetPoint" />
            <Array as="points">
              <mxPoint x="350" y="200" />
              <mxPoint x="330" y="240" />
              <mxPoint x="290" y="240" />
            </Array>
          </mxGeometry>
        </mxCell>
        <mxCell id="0INOOXT7LoLd9vlv_FNC-14" value="&lt;font style=&quot;font-size: 9px;&quot;&gt;get user info from local cache&lt;br&gt;and update user last login time&lt;br&gt;&lt;/font&gt;" style="text;html=1;align=center;verticalAlign=middle;resizable=0;points=[];autosize=1;strokeColor=none;fillColor=none;" vertex="1" parent="1">
          <mxGeometry x="300" y="160" width="140" height="40" as="geometry" />
        </mxCell>
        <mxCell id="0INOOXT7LoLd9vlv_FNC-16" value="" style="html=1;verticalAlign=bottom;endArrow=block;entryX=0;entryY=0;rounded=0;fontSize=9;" edge="1" target="0INOOXT7LoLd9vlv_FNC-15" parent="1" source="7baba1c4bc27f4b0-2">
          <mxGeometry relative="1" as="geometry">
            <mxPoint x="380" y="260" as="sourcePoint" />
          </mxGeometry>
        </mxCell>
        <mxCell id="0INOOXT7LoLd9vlv_FNC-17" value="return cookie and session" style="html=1;verticalAlign=bottom;endArrow=open;dashed=1;endSize=8;exitX=0;exitY=0.95;rounded=0;fontSize=9;" edge="1" source="0INOOXT7LoLd9vlv_FNC-15" parent="1" target="7baba1c4bc27f4b0-2">
          <mxGeometry relative="1" as="geometry">
            <mxPoint x="380" y="336" as="targetPoint" />
          </mxGeometry>
        </mxCell>
        <mxCell id="0INOOXT7LoLd9vlv_FNC-18" value="call auth api signIn with email&lt;br&gt;&amp;nbsp;and password" style="text;html=1;align=center;verticalAlign=middle;resizable=0;points=[];autosize=1;strokeColor=none;fillColor=none;fontSize=9;" vertex="1" parent="1">
          <mxGeometry x="300" y="260" width="130" height="30" as="geometry" />
        </mxCell>
        <mxCell id="0INOOXT7LoLd9vlv_FNC-22" value="" style="html=1;verticalAlign=bottom;endArrow=open;dashed=1;endSize=8;exitX=0;exitY=0.95;rounded=0;fontSize=9;" edge="1" source="0INOOXT7LoLd9vlv_FNC-20" parent="1" target="0INOOXT7LoLd9vlv_FNC-15">
          <mxGeometry relative="1" as="geometry">
            <mxPoint x="460" y="318" as="targetPoint" />
          </mxGeometry>
        </mxCell>
        <mxCell id="0INOOXT7LoLd9vlv_FNC-21" value="" style="html=1;verticalAlign=bottom;endArrow=block;entryX=0;entryY=0;rounded=0;fontSize=9;" edge="1" target="0INOOXT7LoLd9vlv_FNC-20" parent="1" source="0INOOXT7LoLd9vlv_FNC-15">
          <mxGeometry relative="1" as="geometry">
            <mxPoint x="460" y="271" as="sourcePoint" />
          </mxGeometry>
        </mxCell>
        <mxCell id="0INOOXT7LoLd9vlv_FNC-27" value="check if require MFA code" style="text;html=1;align=center;verticalAlign=middle;resizable=0;points=[];autosize=1;strokeColor=none;fillColor=none;fontSize=9;" vertex="1" parent="1">
          <mxGeometry x="310" y="350" width="120" height="20" as="geometry" />
        </mxCell>
        <mxCell id="0INOOXT7LoLd9vlv_FNC-29" value="" style="html=1;verticalAlign=bottom;endArrow=block;entryX=0;entryY=0;rounded=0;fontSize=9;" edge="1" target="0INOOXT7LoLd9vlv_FNC-28" parent="1" source="7baba1c4bc27f4b0-10">
          <mxGeometry relative="1" as="geometry">
            <mxPoint x="300" y="410" as="sourcePoint" />
          </mxGeometry>
        </mxCell>
        <mxCell id="0INOOXT7LoLd9vlv_FNC-30" value="return cookies and SUCCESS status" style="html=1;verticalAlign=bottom;endArrow=open;dashed=1;endSize=8;exitX=0;exitY=0.95;rounded=0;fontSize=9;" edge="1" source="0INOOXT7LoLd9vlv_FNC-28" parent="1" target="7baba1c4bc27f4b0-10">
          <mxGeometry relative="1" as="geometry">
            <mxPoint x="300" y="486" as="targetPoint" />
          </mxGeometry>
        </mxCell>
        <mxCell id="0INOOXT7LoLd9vlv_FNC-32" value="call auth mfachange api with&lt;br&gt;session and mfa code" style="text;html=1;align=center;verticalAlign=middle;resizable=0;points=[];autosize=1;strokeColor=none;fillColor=none;fontSize=9;" vertex="1" parent="1">
          <mxGeometry x="290" y="410" width="130" height="30" as="geometry" />
        </mxCell>
        <mxCell id="0INOOXT7LoLd9vlv_FNC-35" value="" style="html=1;verticalAlign=bottom;endArrow=block;entryX=0;entryY=0;rounded=0;fontSize=9;" edge="1" target="0INOOXT7LoLd9vlv_FNC-34" parent="1">
          <mxGeometry relative="1" as="geometry">
            <mxPoint x="458" y="425" as="sourcePoint" />
          </mxGeometry>
        </mxCell>
        <mxCell id="0INOOXT7LoLd9vlv_FNC-36" value="" style="html=1;verticalAlign=bottom;endArrow=open;dashed=1;endSize=8;exitX=0;exitY=0.95;rounded=0;fontSize=9;" edge="1" source="0INOOXT7LoLd9vlv_FNC-34" parent="1" target="7baba1c4bc27f4b0-3">
          <mxGeometry relative="1" as="geometry">
            <mxPoint x="458" y="501" as="targetPoint" />
          </mxGeometry>
        </mxCell>
        <mxCell id="0INOOXT7LoLd9vlv_FNC-38" value="check email verified and &lt;br&gt;trade permission" style="text;html=1;align=center;verticalAlign=middle;resizable=0;points=[];autosize=1;strokeColor=none;fillColor=none;fontSize=9;" vertex="1" parent="1">
          <mxGeometry x="330" y="500" width="110" height="30" as="geometry" />
        </mxCell>
        <mxCell id="0INOOXT7LoLd9vlv_FNC-39" value="set cookies and return &lt;br&gt;userId/UiThemeId/requestToken&lt;br&gt;request secret" style="html=1;verticalAlign=bottom;endArrow=open;dashed=1;endSize=8;rounded=0;fontSize=9;" edge="1" parent="1" target="7baba1c4bc27f4b0-8">
          <mxGeometry relative="1" as="geometry">
            <mxPoint x="290" y="590" as="sourcePoint" />
            <mxPoint x="210" y="590" as="targetPoint" />
          </mxGeometry>
        </mxCell>
      </root>
    </mxGraphModel>
  </diagram>
</mxfile>
